<svg width="1440" height="26" viewBox="0 0 1440 26" fill="none" xmlns="http://www.w3.org/2000/svg">
<g opacity="0.25">
<path d="M0 6.63721C34.2864 6.63721 34.2864 19.2786 68.5727 19.2786C102.859 19.2786 102.859 6.63721 137.132 6.63721C171.405 6.63721 171.418 19.2786 205.705 19.2786C239.991 19.2786 239.991 6.63721 274.277 6.63721C308.564 6.63721 308.564 19.2786 342.837 19.2786C377.11 19.2786 377.123 6.63721 411.409 6.63721C445.696 6.63721 445.696 19.2786 479.982 19.2786C514.268 19.2786 514.268 6.63721 548.555 6.63721C582.841 6.63721 582.828 19.2786 617.114 19.2786C651.4 19.2786 651.4 6.63721 685.687 6.63721C719.973 6.63721 719.973 19.2786 754.246 19.2786C788.519 19.2786 788.532 6.63721 822.819 6.63721C857.105 6.63721 857.105 19.2786 891.405 19.2786C925.705 19.2786 925.678 6.63721 959.964 6.63721C994.251 6.63721 994.264 19.2786 1028.55 19.2786C1062.84 19.2786 1062.84 6.63721 1097.11 6.63721C1131.38 6.63721 1131.4 19.2786 1165.68 19.2786C1199.97 19.2786 1199.97 6.63721 1234.27 6.63721C1268.57 6.63721 1268.55 19.2786 1302.84 19.2786C1337.13 19.2786 1337.13 6.63721 1371.41 6.63721C1405.7 6.63721 1405.71 19.2786 1440 19.2786" fill="black"/>
<path d="M0 6.63721C34.2864 6.63721 34.2864 19.2786 68.5727 19.2786C102.859 19.2786 102.859 6.63721 137.132 6.63721C171.405 6.63721 171.418 19.2786 205.705 19.2786C239.991 19.2786 239.991 6.63721 274.277 6.63721C308.564 6.63721 308.564 19.2786 342.837 19.2786C377.11 19.2786 377.123 6.63721 411.409 6.63721C445.696 6.63721 445.696 19.2786 479.982 19.2786C514.268 19.2786 514.268 6.63721 548.555 6.63721C582.841 6.63721 582.828 19.2786 617.114 19.2786C651.4 19.2786 651.4 6.63721 685.687 6.63721C719.973 6.63721 719.973 19.2786 754.246 19.2786C788.519 19.2786 788.532 6.63721 822.819 6.63721C857.105 6.63721 857.105 19.2786 891.405 19.2786C925.705 19.2786 925.678 6.63721 959.964 6.63721C994.251 6.63721 994.264 19.2786 1028.55 19.2786C1062.84 19.2786 1062.84 6.63721 1097.11 6.63721C1131.38 6.63721 1131.4 19.2786 1165.68 19.2786C1199.97 19.2786 1199.97 6.63721 1234.27 6.63721C1268.57 6.63721 1268.55 19.2786 1302.84 19.2786C1337.13 19.2786 1337.13 6.63721 1371.41 6.63721C1405.7 6.63721 1405.71 19.2786 1440 19.2786" stroke="black" stroke-width="13" stroke-miterlimit="10"/>
</g>
</svg>
